#!OML:ASF F:\VICON\USERDATA\INSTALL\rory3\rory3.ASF
:FULLY-SPECIFIED
:DEGREES
97
root 0.7811068904541747 18.052847184131128 38.231038491930676 2.6837850420558818 3.4800179406291902 -0.777743725091598
lfemur -24.949683444384966 2.259590283500047 -19.443265295988862
ltibia 61.8410314836897
lfoot 1.248574015255895 -11.415129829155214
ltoes -7.3252914529767965
rfemur -16.74431582234143 5.180529023469874 30.14046895613068
rtibia 54.766406149342515
rfoot 2.6533435326672423 -5.4377019110006914
rtoes 0.003978655602893788
lowerback 13.897330334585977 0.15829933753682138 2.346700559933287
upperback -1.0562473472950218 2.459281679841851 1.4695377831201633
thorax -9.327478472445652 0.8908124118416093 -0.8988387918805554
lowerneck -20.12929662927268 -5.084492873588923 -1.868255245421706
upperneck 14.972816567551222 -7.568477181721767 2.899829574103657
head 8.197883203327697 -2.9262420184937423 0.49291234227620107
lclavicle -1.9521729781560437e-15 1.1013548979497733e-15
lhumerus -57.116949469532166 -6.901268528465328 97.74136824486008
lradius 111.06735668810492
lwrist 46.73705112264576
lhand -17.36666981932951 6.470923286538692
lfingers 7.125020000000001
lthumb 8.548890347940533 36.23716573240796
rclavicle -1.952176533109819e-15 1.1013521049827522e-15
rhumerus -43.020217252860505 16.364063956206035 -100.18082415392398
rradius 113.27983328458194
rwrist -15.563345360607732
rhand -24.477956734786787 -114.26971088292301
rfingers 7.125020000000001
rthumb 4.002600975241646 14.77525891182989
98
root 0.7792513974980401 18.056157234587417 37.52320243055006 2.5688417143853988 3.522535914802991 -0.8189421851719026
lfemur -25.996191801341382 1.708573061320786 -20.602259608814446
ltibia 57.27417793804042
lfoot 2.7559862120090854 -11.675951553591942
ltoes -7.356023104027679
rfemur -15.146674481737435 5.573882978733139 30.575571686592188
rtibia 53.77088988898004
rfoot 2.5789471467562755 -5.281559899600782
rtoes -0.09105542816307166
lowerback 13.733928004765371 0.1912948092536721 2.3957690113996795
upperback -1.1113846713570497 2.486574544108428 1.3465241650795376
thorax -9.254150661362228 0.898641309090021 -0.8701358954475815
lowerneck -20.081559302204337 -5.15201130296366 -1.858212473599655
upperneck 15.14966922356735 -7.522373185642517 3.010082860294732
head 8.201164274567063 -2.947119358752516 0.49514919020992004
lclavicle -1.9521729781560437e-15 1.1013548979497733e-15
lhumerus -56.69755142266612 -6.764073851278411 97.58069910075344
lradius 111.60968711792319
lwrist 46.798487982182216
lhand -17.353261287672098 6.563322655371916
lfingers 7.125020000000001
lthumb 8.55508905817209 36.26553046791407
rclavicle -1.952176533109819e-15 1.1013521049827522e-15
rhumerus -42.79760355448745 16.828702400263097 -100.23975395313661
rradius 113.34845901440903
rwrist -15.318588682666087
rhand -24.34838676248804 -116.28751125688063
rfingers 7.125020000000001
rthumb 4.0097095754446785 14.791011298479642
99
root 0.7794770139544767 18.05716292302127 37.584808618693565 2.4889930875423407 3.6696154225545 -0.800657441175948
lfemur -24.918270900026215 1.5902225532168337 -20.657649588952204
ltibia 53.247820130706
lfoot 3.947820522139084 -12.37768959365187
ltoes -7.629860156194156
rfemur -14.688300530455788 5.656871887559616 30.246439633240342
rtibia 54.0556822973318
rfoot 2.782139272452507 -5.054744256847248
rtoes -0.32236228632543484
lowerback 13.643036299449502 0.23808026623603967 2.434380390063764
upperback -1.1708792964159547 2.4143502212362344 1.1817904603805385
thorax -9.219136337929214 0.8573336779273457 -0.894629215925985
lowerneck -20.112141178598662 -5.299333537243362 -1.8832868723640614
upperneck 15.158923648377362 -7.5994825969568005 3.0269157380788494
head 8.21485736784593 -2.9469398128130857 0.503027174155863
lclavicle -1.9521729781560437e-15 1.1013548979497733e-15
lhumerus -56.44379284962635 -6.928811068995269 97.33743756755536
lradius 111.55110548489745
lwrist 46.73881336162725
lhand -17.425867777156537 6.5032052125423006
lfingers 7.125020000000001
lthumb 8.528037638482562 36.22947209206237
rclavicle -1.952176533109819e-15 1.1013521049827522e-15
rhumerus -42.71026016258028 17.230615325461116 -100.34678144919707
rradius 113.37090346477338
rwrist -15.4669811898694
rhand -24.435175528463194 -119.32580387642514
rfingers 7.125020000000001
rthumb 4.271193488705234 15.061846349808132
100
root 0.7693463360787329 18.019105222175288 36.757525144468374 2.253780890737561 3.5721664236704926 -0.8699198676807856
lfemur -26.376884159583337 0.9031280588229977 -21.855490442689906
ltibia 50.11278398232871
lfoot 2.091346551170384 -13.539583720971653
ltoes -7.828160061596722
rfemur -14.622858554558333 5.973254016661483 30.285483497283494
rtibia 54.998516191117346
rfoot 3.203000982811965 -4.87676343634002
rtoes -1.285864808522517
lowerback 13.628639670231797 0.2829589197983891 2.4438603764348676
upperback -1.2236831882038393 2.2254848413832344 1.001716730653515
thorax -9.25170495852994 0.8082756632480526 -0.9370469949853564
lowerneck -19.96796808718428 -5.307313739898093 -1.8641716447496797
upperneck 15.282208645560564 -7.5489722475056915 3.121474657928004
head 8.201932115391163 -2.973119950429208 0.500454830057555
lclavicle -1.9521729781560437e-15 1.1013548979497733e-15
lhumerus -55.83796630153127 -7.030981446781062 97.23667901084171
lradius 111.58669608849017
lwrist 46.50969811688452
lhand -17.481344005231765 6.537502065832296
lfingers 7.125020000000001
lthumb 8.404454499942451 36.098408691021206
rclavicle -1.952176533109819e-15 1.1013521049827522e-15
rhumerus -42.78910777269899 17.52494229453904 -100.49547169893778
rradius 113.38967807581419
rwrist -15.816702599336255
rhand -24.204235591618975 -116.15419392082471
rfingers 7.125020000000001
rthumb 4.131433888412853 15.008907080833417
